<?xml version="1.0" standalone="no"?><!DOCTYPE svg PUBLIC "-//W3C//DTD SVG 1.1//EN" "http://www.w3.org/Graphics/SVG/1.1/DTD/svg11.dtd"><svg t="1683012854872" class="icon" viewBox="0 0 1024 1024" version="1.1" xmlns="http://www.w3.org/2000/svg" p-id="3850" xmlns:xlink="http://www.w3.org/1999/xlink" width="200" height="200"><path d="M928.511813 954.811865H95.488187C42.836084 954.811865 0 911.979781 0 859.325678V164.672322C0 112.020219 42.836084 69.186135 95.488187 69.186135h833.023626c52.652103 0 95.488187 42.836084 95.488187 95.488187 0 15.28203-12.390024 27.676054-27.676054 27.676054s-27.676054-12.392024-27.676054-27.676054c0-22.132043-18.006035-40.138078-40.138079-40.138079H95.488187c-22.132043 0-40.138078 18.002035-40.138079 40.134079v694.653356c0 22.132043 18.006035 40.138078 40.138079 40.138079h833.023626c22.132043 0 40.138078-18.006035 40.138079-40.138079V488.020953c0-15.28203 12.390024-27.676054 27.676054-27.676054S1024.002 472.736923 1024.002 488.020953v371.304725c0 52.654103-42.836084 95.486186-95.490187 95.486187z" fill="#2D527C" p-id="3851"></path><path d="M27.676054 164.672322v139.766273h968.647892V164.672322c0-37.452073-30.360059-67.812132-67.812133-67.812133H95.488187c-37.450073-0.002-67.812132 30.362059-67.812133 67.812133z" fill="#CEE8FA" p-id="3852"></path><path d="M996.325946 332.112649H27.676054C12.390024 332.112649 0 319.718624 0 304.436595V164.672322C0 112.020219 42.836084 69.186135 95.488187 69.186135h833.023626c52.652103 0 95.488187 42.836084 95.488187 95.488187v139.766273c0.002 15.28203-12.388024 27.672054-27.674054 27.672054zM55.350108 276.762541h913.301784V164.672322c0-22.132043-18.006035-40.138078-40.138078-40.138079H95.490187c-22.134043 0.002-40.140078 18.006035-40.140079 40.138079v112.090219z" fill="#2D527C" p-id="3853"></path><path d="M589.485151 228.322446H536.901049c-15.28403 0-27.676054-12.392024-27.676054-27.676054s12.390024-27.676054 27.676054-27.676054h52.582102c15.28403 0 27.676054 12.392024 27.676054 27.676054s-12.390024 27.676054-27.674054 27.676054zM736.163438 228.322446H683.581335c-15.28403 0-27.676054-12.392024-27.676054-27.676054s12.390024-27.676054 27.676054-27.676054h52.582103c15.28603 0 27.676054 12.392024 27.676054 27.676054s-12.392024 27.676054-27.676054 27.676054zM882.841724 228.322446h-52.582102c-15.28403 0-27.676054-12.392024-27.676054-27.676054s12.390024-27.676054 27.676054-27.676054h52.582102c15.28403 0 27.676054 12.392024 27.676054 27.676054s-12.390024 27.676054-27.676054 27.676054z" fill="#2D527C" p-id="3854"></path><path d="M511.999 726.185418l-113.706222 59.780117 21.718042-126.616247-91.994179-89.668175 127.130248-18.472036 56.852111-115.198225 56.856111 115.198225 127.130248 18.472036-91.994179 89.668175 21.718042 126.616247z" fill="#CEE8FA" p-id="3855"></path><path d="M625.705222 813.641589c-4.406009 0-8.826017-1.048002-12.874025-3.178006l-100.828197-53.008104-100.828197 53.008104a27.672054 27.672054 0 1 1-40.154078-29.174057l19.256037-112.272219-81.572159-79.514156a27.670054 27.670054 0 0 1-7.002014-28.370055 27.684054 27.684054 0 0 1 22.342044-18.838037l112.73022-16.378032 50.414099-102.152199a27.678054 27.678054 0 0 1 49.632096 0l50.414099 102.152199 112.73022 16.378032c10.42602 1.516003 19.084037 8.820017 22.342044 18.838037s0.540001 21.016041-7.002014 28.370055l-81.572159 79.514156 18.950037 110.474215c0.498001 2.078004 0.762001 4.248008 0.762001 6.478013 0 15.28003-12.382024 27.666054-27.662054 27.676054-0.03-0.004-0.052-0.004-0.078-0.004z m-113.706222-115.132225c4.426009 0 8.848017 1.060002 12.878025 3.178006l64.074125 33.686066-12.236024-71.344139a27.680054 27.680054 0 0 1 7.956016-24.498048l51.836101-50.530099-71.63814-10.40802a27.676054 27.676054 0 0 1-20.83604-15.14203l-32.036063-64.912126-32.036063 64.912126a27.688054 27.688054 0 0 1-20.83604 15.14203l-71.63814 10.40802 51.836101 50.530099a27.678054 27.678054 0 0 1 7.956016 24.498048l-12.236024 71.344139 64.074125-33.686066a27.716054 27.716054 0 0 1 12.882025-3.178006z" fill="#2D527C" p-id="3856"></path></svg>