<?xml version="1.0" standalone="no"?><!DOCTYPE svg PUBLIC "-//W3C//DTD SVG 1.1//EN" "http://www.w3.org/Graphics/SVG/1.1/DTD/svg11.dtd"><svg t="1682662877419" class="icon" viewBox="0 0 1024 1024" version="1.1" xmlns="http://www.w3.org/2000/svg" p-id="28539" xmlns:xlink="http://www.w3.org/1999/xlink" width="200" height="200"><path d="M990.4 555.2l-230.4-115.2c-20.8-12.8-46.4-8-64 8s-20.8 43.2-8 64l115.2 230.4c8 20.8 30.4 33.6 56 33.6 20.8 0 38.4-12.8 46.4-30.4l25.6-59.2 59.2-25.6c17.6-8 30.4-25.6 30.4-46.4 3.2-25.6-9.6-46.4-30.4-59.2z m-124.8 64l-12.8 33.6-46.4-89.6 89.6 43.2-30.4 12.8zM256 267.2l-25.6 38.4-22.4-30.4c-20.8-25.6-64-25.6-81.6 0l-20.8 30.4L80 267.2c-12.8-20.8-38.4-25.6-59.2-12.8-20.8 12.8-25.6 38.4-12.8 59.2L64 400c17.6 25.6 64 25.6 81.6 0l20.8-30.4 20.8 30.4c8 12.8 25.6 20.8 43.2 20.8s30.4-8 43.2-20.8l56-86.4c12.8-20.8 8-46.4-12.8-59.2-22.4-8-48-4.8-60.8 12.8zM601.6 267.2L576 305.6l-20.8-30.4c-8-12.8-25.6-20.8-43.2-20.8s-30.4 8-38.4 20.8l-20.8 30.4-25.6-38.4c-12.8-20.8-38.4-25.6-59.2-12.8-20.8 12.8-25.6 38.4-12.8 59.2l56 81.6c17.6 25.6 64 25.6 81.6 0l19.2-28.8 20.8 30.4c8 12.8 25.6 20.8 38.4 20.8 12.8 0 30.4-8 43.2-20.8l56-86.4c12.8-20.8 8-46.4-12.8-59.2-17.6-4.8-43.2-1.6-56 16zM1009.6 259.2c-20.8-12.8-46.4-8-59.2 12.8l-25.6 38.4-25.6-33.6c-17.6-25.6-64-25.6-81.6 0l-20.8 30.4-25.6-38.4c-12.8-20.8-38.4-25.6-59.2-12.8-20.8 12.8-25.6 38.4-12.8 59.2l56 81.6c17.6 25.6 64 25.6 81.6 0l20.8-30.4 20.8 30.4c8 12.8 25.6 20.8 38.4 20.8s30.4-8 43.2-20.8l56-86.4c14.4-12.8 9.6-38.4-6.4-51.2z" p-id="28540"></path></svg>